<svg width="4355" height="859" viewBox="0 0 4355 859" fill="none" xmlns="http://www.w3.org/2000/svg">
<path d="M21.401 252.501C22.3525 252.507 24.4771 252.478 25.3214 252.669C82.4755 265.613 109.808 351.052 127.169 394.935C133.595 411.351 140.743 427.477 148.591 443.264C163.415 472.883 182.947 500.125 204.046 525.546C279.808 616.578 388.338 674.135 506.181 685.778C502.059 683.695 473.685 676.651 466.273 674.074C444.162 666.383 421.992 658.359 400.769 648.126C313.081 605.845 235.899 543.7 185.891 459.088C180.269 449.578 170.072 431.591 166.681 422.194C262.504 407.239 391.843 474.258 481.652 509.477C509.555 520.716 538.206 529.995 567.404 537.245C579.242 539.784 603.36 544.922 615.272 546.132C668.196 551.505 723.443 549.06 773.879 531.063C805.164 519.896 832.791 504.518 861.262 488.302C857.269 507.438 849.636 527.076 841.881 544.992C801.679 637.864 725.652 705.696 631.135 741.382C539.318 776.382 437.363 773.526 347.648 733.428C239.755 684.424 171.79 593.209 132.895 483.87C121.256 451.149 113.651 415.857 101.647 383.906C88.091 346.928 61.8297 315.979 27.5573 296.588C19.3762 291.889 8.73417 287.302 0 283.343C0.942465 276.895 3.04748 270.672 6.21112 264.975C10.0955 258.076 13.9185 254.634 21.401 252.501Z" fill="#A9C915"/>
<path d="M372.673 443.225C582.097 511.833 702.998 582.54 904 424.242C903.346 442.535 899.279 464.599 895.213 482.609C876.364 566.038 835.745 646.082 772.578 704.624C689.867 781.275 592.095 809.834 480.891 805.701C374.589 801.757 287.26 763.681 214.386 685.508C168.076 635.833 141.205 580.359 121.347 515.967C122.557 512.458 122.192 510.288 124.818 507.476C135.11 535.798 155.129 573.406 171.753 598.48C230.884 687.668 317.958 751.619 424.44 771.512C528.241 791.569 633.082 767.855 720.677 710.008C809.901 651.09 858.987 564.652 879.457 460.921C853.752 480.852 811.48 504.263 780.825 515.981C637.549 570.752 503.923 507.185 374.2 449.827C373.774 445.804 372.005 448.958 372.673 443.225Z" fill="#4D3010"/>
<path d="M247.696 203.766C327.31 205.782 441.254 227.477 468.43 315.058C475.285 337.146 476.969 366.571 471.516 389.092C471.291 390.022 471.15 389.757 470.251 390.279C466.298 385.97 461.412 376.182 457.941 370.9C454.883 366.248 451.937 362.077 448.677 357.552C423.274 322.104 390.08 292.956 351.648 272.352C347.155 269.362 343.142 267.779 338.238 265.647C339.998 267.204 344.346 271.234 346.065 272.336C387.482 309.763 431.13 359.297 454.974 410.333C350.194 411.278 322.009 362.475 285.144 274.008C276.316 252.823 259.297 223.872 247.696 203.766Z" fill="#A9C915"/>
<path d="M648.765 168.405C649.502 168.328 649.346 168.46 650.23 168.908C649.943 177.874 639.504 202.317 638.163 213.846C637.107 222.973 632.542 236.045 631.102 246.078C620.876 317.383 595.277 374.498 515.186 378.538C514.32 335.59 552.727 274.359 579.717 242.228C573.237 245.738 571.192 247.331 565.629 252.275C543.761 267.833 517.466 303.975 507.111 328.702C502.253 340.302 498.76 351.868 495.173 363.93C489.499 354.72 481.24 331.889 479.576 321.076C475.506 294.631 483.979 266.393 500.115 245.122C525.255 211.979 573.614 191.537 611.729 178.331C621.35 174.997 638.874 169.817 648.765 168.405Z" fill="#A9C915"/>
<path d="M451.124 0C454.303 2.35019 468.177 31.0173 470.745 36.2488C491.619 78.7642 518.178 124.936 512.724 174.035C509.999 198.576 496.475 224.027 476.965 239.266C456.623 191.472 449.283 142.228 448.842 90.628L448.261 90.1665L447.216 92.993C435.897 141.578 442.289 193.056 454.248 240.742C448.228 237.996 442.408 234.835 436.828 231.281C415.031 217.103 401.038 196.011 395.867 170.569C384.151 112.923 420.7 46.3672 451.124 0Z" fill="#A9C915"/>
<path d="M656.112 788.41L656.799 788.983C656.971 789.875 657.077 790.284 657.053 791.209C656.66 804.269 651.596 817.51 641.77 826.396C608.187 856.748 534.516 858.802 491.675 857.877C459.025 857.173 410.189 852.828 381.528 837.28C372.964 832.632 366.885 827.092 360.36 820.202C351.711 809.416 350.117 802.011 347.958 788.918C348.35 789.106 348.745 789.278 349.142 789.45C361.259 794.744 382.288 799.842 395.564 803.254C475.946 823.901 578.334 819.482 656.112 788.41Z" fill="#4D3010"/>
<path d="M121.347 515.967C118.867 503.14 114.226 490.14 112.507 477.035C111.919 472.552 110.145 468.465 110.045 463.806L110.903 463.835C113.893 479.602 119.129 492.59 124.818 507.476C122.192 510.288 122.557 512.458 121.347 515.967Z" fill="#050302"/>
<path d="M374.2 449.827C360.102 444.12 346.965 438.153 332.668 432.869C335.082 432.168 367.848 441.881 372.673 443.225C372.005 448.958 373.774 445.804 374.2 449.827Z" fill="#050302"/>
<path d="M373.577 419.909C379.213 420.939 400.89 428.418 408.084 430.632L408.803 436.376C397.571 431.903 384.757 425.2 373.577 419.909Z" fill="#050302"/>
<path d="M338.238 265.647C343.142 267.779 347.155 269.362 351.648 272.352C349.062 272.606 348.616 272.66 346.065 272.336C344.346 271.234 339.998 267.204 338.238 265.647Z" fill="#A9C915" fill-opacity="0.0627451"/>
<path fill-rule="evenodd" clip-rule="evenodd" d="M634.89 289.2C656.603 289.461 678.316 290.024 700.012 290.888C698.026 294.23 694.869 298.451 692.129 302.115L692.122 302.124C691.344 303.164 690.599 304.161 689.925 305.078C688.746 306.919 687.392 308.603 686.025 310.302C685.779 310.608 685.532 310.915 685.286 311.223C670.991 311.363 655.327 310.669 640.516 310.012L640.406 310.007L640.373 310.006C637.018 309.857 633.706 309.711 630.464 309.576C631.798 301.952 632.796 296.62 634.89 289.2ZM830.885 444.102C851.224 430.096 873.403 409.482 877.714 384.006C879.98 370.871 876.912 357.373 869.189 346.51C850.618 320.561 805.289 306.48 773.267 300.409L759.628 320.283C797.563 326.38 862.034 341.211 846.88 389.818C839.549 413.337 813.828 429.696 792.68 440.293C773.127 449.866 752.298 456.564 730.838 460.18C642.466 475.866 493.588 459.016 408.084 430.633L408.803 436.376C410.662 437.652 425.075 443.717 428.275 445.045C471.718 462.867 516.874 476.183 563.036 484.782C649.788 500.51 755.971 495.693 830.885 444.102Z" fill="#4D3010"/>
<path d="M773.383 300.285C773.383 300.285 718.587 291.328 700.146 290.801C681.705 290.274 679.597 311.35 684.866 311.35C690.135 311.35 759.684 320.307 759.684 320.307L773.383 300.285Z" fill="#4D3010"/>
<path d="M1288.58 221.54H1368.76L1309.86 459.04H1198.9L1140 221.54H1220.18L1252.48 372.4H1255.9L1288.58 221.54ZM1387.59 459.04V221.54H1463.59V459.04H1387.59ZM1670.62 282.34H1615.52V459.04H1539.52V282.34H1484.42V221.54H1670.62V282.34ZM1734.78 459.04H1654.6L1716.16 221.54H1833.58L1895.14 459.04H1814.96L1806.22 421.42H1743.52L1734.78 459.04ZM1772.78 294.5L1757.2 361H1792.16L1776.96 294.5H1772.78ZM2061.72 459.04H1909.72V221.54H1985.72V398.24H2061.72V459.04ZM2261.4 389.12V378.86H2242.02V320.72H2333.6V447.64C2303.45 459.04 2272.29 464.74 2240.12 464.74C2196.8 464.74 2167.03 454.227 2150.82 433.2C2142.46 422.307 2136.63 409.514 2133.34 394.82C2130.05 380.127 2128.4 362.014 2128.4 340.48C2128.4 318.694 2130.05 300.58 2133.34 286.14C2136.89 271.447 2143.09 258.654 2151.96 247.76C2168.68 226.48 2200.98 215.84 2248.86 215.84C2258.74 215.84 2271.53 216.854 2287.24 218.88C2303.2 220.907 2314.85 223.187 2322.2 225.72L2310.8 283.86C2290.28 280.314 2271.66 278.54 2254.94 278.54C2238.47 278.54 2226.82 279.807 2219.98 282.34C2213.39 284.874 2210.1 289.94 2210.1 297.54V405.08H2235.18C2244.3 405.08 2250.89 404.194 2254.94 402.42C2259.25 400.394 2261.4 395.96 2261.4 389.12ZM2574.75 459.04H2491.15L2459.99 388.36H2443.65V459.04H2367.65V221.54H2487.35C2541.82 221.54 2569.05 249.28 2569.05 304.76C2569.05 342.76 2557.27 367.84 2533.71 380L2574.75 459.04ZM2443.65 282.34V329.84H2461.13C2470.25 329.84 2476.84 328.954 2480.89 327.18C2485.2 325.154 2487.35 320.72 2487.35 313.88V298.3C2487.35 291.46 2485.2 287.154 2480.89 285.38C2476.84 283.354 2470.25 282.34 2461.13 282.34H2443.65ZM2753.44 369.36H2677.44V398.24H2770.54V459.04H2601.44V221.54H2768.64L2759.14 282.34H2677.44V314.26H2753.44V369.36ZM2954.95 369.36H2878.95V398.24H2972.05V459.04H2802.95V221.54H2970.15L2960.65 282.34H2878.95V314.26H2954.95V369.36ZM3143.91 459.04L3085.77 374.68C3083.74 371.894 3082.48 365.814 3081.97 356.44H3080.45V459.04H3004.45V221.54H3075.89L3134.03 305.9C3136.06 308.687 3137.32 314.767 3137.83 324.14H3139.35V221.54H3215.35V459.04H3143.91ZM3451.2 370.88H3386.6V459.04H3310.6V221.54H3466.4L3456.9 282.34H3386.6V314.26H3451.2V370.88ZM3477.7 340.48C3477.7 297.16 3485.8 265.62 3502.02 245.86C3518.23 225.847 3547.49 215.84 3589.8 215.84C3632.1 215.84 3661.36 225.847 3677.58 245.86C3693.79 265.62 3701.9 297.16 3701.9 340.48C3701.9 362.014 3700.12 380.127 3696.58 394.82C3693.28 409.514 3687.46 422.307 3679.1 433.2C3670.74 444.094 3659.21 452.074 3644.52 457.14C3629.82 462.207 3611.58 464.74 3589.8 464.74C3568.01 464.74 3549.77 462.207 3535.08 457.14C3520.38 452.074 3508.86 444.094 3500.5 433.2C3492.14 422.307 3486.18 409.514 3482.64 394.82C3479.34 380.127 3477.7 362.014 3477.7 340.48ZM3559.4 300.96V399.76H3590.94C3601.32 399.76 3608.8 398.62 3613.36 396.34C3618.17 393.807 3620.58 388.234 3620.58 379.62V280.82H3588.66C3578.52 280.82 3571.05 282.087 3566.24 284.62C3561.68 286.9 3559.4 292.347 3559.4 300.96ZM3717.05 340.48C3717.05 297.16 3725.16 265.62 3741.37 245.86C3757.59 225.847 3786.85 215.84 3829.15 215.84C3871.46 215.84 3900.72 225.847 3916.93 245.86C3933.15 265.62 3941.25 297.16 3941.25 340.48C3941.25 362.014 3939.48 380.127 3935.93 394.82C3932.64 409.514 3926.81 422.307 3918.45 433.2C3910.09 444.094 3898.57 452.074 3883.87 457.14C3869.18 462.207 3850.94 464.74 3829.15 464.74C3807.37 464.74 3789.13 462.207 3774.43 457.14C3759.74 452.074 3748.21 444.094 3739.85 433.2C3731.49 422.307 3725.54 409.514 3721.99 394.82C3718.7 380.127 3717.05 362.014 3717.05 340.48ZM3798.75 300.96V399.76H3830.29C3840.68 399.76 3848.15 398.62 3852.71 396.34C3857.53 393.807 3859.93 388.234 3859.93 379.62V280.82H3828.01C3817.88 280.82 3810.41 282.087 3805.59 284.62C3801.03 286.9 3798.75 292.347 3798.75 300.96ZM3967.81 459.04V221.54H4074.21C4117.02 221.54 4146.41 230.66 4162.37 248.9C4178.33 267.14 4186.31 297.667 4186.31 340.48C4186.31 383.04 4178.33 413.44 4162.37 431.68C4146.41 449.92 4117.02 459.04 4074.21 459.04H3967.81ZM4075.35 282.34H4043.81V398.24H4075.35C4085.74 398.24 4093.21 397.1 4097.77 394.82C4102.58 392.287 4104.99 386.714 4104.99 378.1V302.48C4104.99 293.867 4102.58 288.42 4097.77 286.14C4093.21 283.607 4085.74 282.34 4075.35 282.34Z" fill="#4D3010"/>
<path d="M1189.4 709.48V763.04H1163.4V600.54H1227.1C1238.54 600.54 1247.55 602.274 1254.14 605.74C1260.73 609.207 1265.41 614.927 1268.18 622.9C1271.13 630.874 1272.6 641.707 1272.6 655.4C1272.6 674.814 1269.39 688.68 1262.98 697C1256.57 705.32 1245.91 709.48 1231 709.48H1189.4ZM1189.4 688.94H1227.36C1234.12 688.94 1238.8 688.16 1241.4 686.6C1244 685.04 1245.3 682.18 1245.3 678.02V633.04C1245.3 628.88 1244 626.02 1241.4 624.46C1238.8 622.9 1234.12 622.12 1227.36 622.12H1189.4V688.94ZM1327.27 705.58V763.04H1301.27V600.54H1366.27C1377.71 600.54 1386.72 602.274 1393.31 605.74C1399.9 609.207 1404.58 614.927 1407.35 622.9C1410.3 630.874 1411.77 641.707 1411.77 655.4C1411.77 673.254 1408.56 686.08 1402.15 693.88C1395.74 701.68 1385.08 705.58 1370.17 705.58H1327.27ZM1327.27 685.04H1366.53C1373.29 685.04 1377.97 684.26 1380.57 682.7C1383.17 681.14 1384.47 678.28 1384.47 674.12V633.04C1384.47 628.88 1383.17 626.02 1380.57 624.46C1377.97 622.9 1373.29 622.12 1366.53 622.12H1327.27V685.04ZM1385.77 693.36L1419.57 763.04H1391.23L1360.55 698.04L1385.77 693.36ZM1452.09 600.54H1478.09V763.04H1452.09V600.54ZM1504.16 600.54H1530.16L1568.12 739.12H1570.46L1608.42 600.54H1634.42L1588.92 763.04H1549.66L1504.16 600.54ZM1633.18 763.04L1681.28 600.54H1720.54L1768.64 763.04H1742.64L1702.08 624.46H1699.74L1659.18 763.04H1633.18ZM1657.1 726.64V706.1H1745.24V726.64H1657.1ZM1836.14 622.12V763.04H1810.14V622.12H1767.24V600.54H1879.04V622.12H1836.14ZM1932.33 692.06V741.46H2003.83V763.04H1906.33V600.54H2003.05L1999.93 622.12H1932.33V671.52H1993.95V692.06H1932.33ZM2105.14 763.04V600.54H2131.14V741.46H2190.94V763.04H2105.14ZM2216.86 600.54H2242.86V763.04H2216.86V600.54ZM2285.83 763.04L2296.75 600.54H2332.63L2368.77 722.22H2370.59L2406.73 600.54H2442.61L2453.53 763.04H2427.79L2419.47 634.86H2417.91L2380.21 763.04H2359.15L2321.45 634.86H2319.89L2311.57 763.04H2285.83ZM2496.41 600.54H2522.41V763.04H2496.41V600.54ZM2618.68 622.12V763.04H2592.68V622.12H2549.78V600.54H2661.58V622.12H2618.68ZM2714.87 692.06V741.46H2786.37V763.04H2688.87V600.54H2785.59L2782.47 622.12H2714.87V671.52H2776.49V692.06H2714.87ZM2822.68 600.54H2880.92C2894.09 600.54 2904.84 601.667 2913.16 603.92C2921.48 606 2927.89 609.987 2932.4 615.88C2937.08 621.774 2940.28 630.007 2942.02 640.58C2943.75 651.154 2944.62 664.934 2944.62 681.92C2944.62 698.734 2943.75 712.514 2942.02 723.26C2940.28 733.834 2937.08 742.067 2932.4 747.96C2927.89 753.68 2921.48 757.667 2913.16 759.92C2904.84 762 2894.09 763.04 2880.92 763.04H2822.68V600.54ZM2848.68 622.12V741.46H2896.26C2903.88 741.46 2909.17 740.074 2912.12 737.3C2915.06 734.527 2916.54 729.587 2916.54 722.48V641.1C2916.54 633.994 2915.06 629.054 2912.12 626.28C2909.17 623.507 2903.88 622.12 2896.26 622.12H2848.68Z" fill="black"/>
</svg>
